<?xml version="1.0" encoding="UTF-8"?>
<svg version="1.1" xmlns="http://www.w3.org/2000/svg" width="400" height="400">
<path d="M0 0 C132 0 264 0 400 0 C400 132 400 264 400 400 C268 400 136 400 0 400 C0 268 0 136 0 0 Z " fill="#FEFEFE" transform="translate(0,0)"/>
<path d="M0 0 C15.4711263 11.98057841 26.31627882 27.33833743 33.72460938 45.41210938 C34.14226562 46.42917969 34.14226562 46.42917969 34.56835938 47.46679688 C39.48787574 61.11259822 40.17751363 75.0701413 39.72460938 89.41210938 C38.33048828 89.57646484 38.33048828 89.57646484 36.90820312 89.74414062 C19.48529289 91.97877875 9.7856233 99.88557235 -2.18769455 112.12948418 C-4.14966377 114.13488744 -6.12170791 116.12988841 -8.09658813 118.12257385 C-12.99815377 123.07190682 -17.8850807 128.03558662 -22.76739502 133.00390625 C-26.90202801 137.21135775 -31.04465511 141.41058832 -35.19908524 145.59849739 C-37.1273628 147.54870926 -39.04350345 149.51031495 -40.95956421 151.47251892 C-47.55372006 158.15915577 -53.9623293 163.86538476 -62.27539062 168.41210938 C-63.01719574 168.82186508 -63.75900085 169.23162079 -64.52328491 169.65379333 C-78.90291959 177.37803401 -97.65645111 179.16394879 -113.34570312 174.51367188 C-136.13376767 165.94535961 -152.30022922 149.09654828 -162.75585938 127.33007812 C-164.01157165 124.38205207 -165.16733314 121.41855925 -166.27539062 118.41210938 C-166.64535156 117.44660156 -167.0153125 116.48109375 -167.39648438 115.48632812 C-172.15591827 102.32379116 -172.57650604 89.22996098 -172.27539062 75.41210938 C-171.47617188 75.32574219 -170.67695313 75.239375 -169.85351562 75.15039062 C-157.64638572 73.58868034 -148.0115655 70.25034237 -139.27539062 61.41210938 C-138.38851562 60.56648438 -137.50164062 59.72085938 -136.58789062 58.84960938 C-134.20313076 56.40234453 -134.20313076 56.40234453 -131.96289062 53.53710938 C-130.04299327 51.18651367 -127.99968693 49.24817431 -125.68115234 47.29101562 C-120.91368491 43.16376449 -116.51219777 38.72132328 -112.09570312 34.22460938 C-110.34469594 32.45608819 -108.59338447 30.68786822 -106.84179688 28.91992188 C-104.11787098 26.16508131 -101.39634645 23.40799623 -98.68017578 20.64550781 C-96.0339181 17.95662263 -93.37805145 15.27752866 -90.72070312 12.59960938 C-89.92246124 11.78274658 -89.12421936 10.96588379 -88.30178833 10.12426758 C-64.97424362 -13.30735158 -27.92177606 -20.45469538 0 0 Z " fill="#309CA3" transform="translate(266.275390625,117.587890625)"/>
<path d="M0 0 C4.29 0 8.58 0 13 0 C13.33 1.65 13.66 3.3 14 5 C14.66 5 15.32 5 16 5 C17.2890625 6.6796875 17.2890625 6.6796875 18.625 8.875 C19.07101563 9.59429687 19.51703125 10.31359375 19.9765625 11.0546875 C21 13 21 13 21 15 C21.66 15 22.32 15 23 15 C23.33 16.32 23.66 17.64 24 19 C24.66 19 25.32 19 26 19 C27.41015625 20.50390625 27.41015625 20.50390625 29.0625 22.5625 C32.32185145 26.41508069 35.82329126 29.3857833 39.88671875 32.359375 C42 34 42 34 43.8671875 35.953125 C50.97107537 42.77077563 60.78316964 46.68921788 70.16015625 49.11328125 C73 50 73 50 75.34521484 51.48242188 C83.58830361 56.19449101 94.62579387 55.34511611 103.86303711 55.31567383 C105.93201239 55.3125084 107.99955876 55.33609586 110.06835938 55.36132812 C118.71456091 55.40289826 126.65594308 54.39459409 135 52 C135.77077881 51.77997314 136.54155762 51.55994629 137.33569336 51.33325195 C139.23583061 50.76068576 141.11893879 50.13242575 143 49.5 C144.216875 49.0978125 145.43375 48.695625 146.6875 48.28125 C149.99193545 47.1123845 149.99193545 47.1123845 152.75 45.34375 C155 44 155 44 158 44 C158 43.34 158 42.68 158 42 C160.9826906 40.47551369 163.818202 39.06059933 167 38 C167 37.34 167 36.68 167 36 C167.99 35.67 168.98 35.34 170 35 C168.47610749 38.58178223 166.36096854 40.90347614 163.63305664 43.6574707 C162.72773697 44.57555008 161.8224173 45.49362946 160.8896637 46.43952942 C159.89690095 47.43535202 158.90372086 48.43075869 157.91015625 49.42578125 C156.88546988 50.45690229 155.86093106 51.48816997 154.83653259 52.51957703 C152.68551517 54.68256632 150.53040661 56.84138446 148.37280273 58.99780273 C145.63271449 61.73768904 142.9065763 64.49099947 140.18393803 67.24821186 C138.06907635 69.38552598 135.94496705 71.51347022 133.81832695 73.63905907 C132.81096762 74.64875187 131.80678605 75.66162699 130.80610847 76.67794228 C116.65828842 91.02580713 100.08222438 100.88143958 79.59472656 101.24194336 C58.92776819 101.31490117 43.14498471 93.77841671 28.25 79.5 C18.29165604 69.14703635 10.94581159 56.4192809 6 43 C5.63003906 42.03449219 5.26007813 41.06898438 4.87890625 40.07421875 C0.11947236 26.91168179 -0.30111541 13.81785161 0 0 Z " fill="#177577" transform="translate(94,193)"/>
<path d="M0 0 C0 3 0 3 -1.51182556 4.87931824 C-2.21940506 5.58325211 -2.92698456 6.28718597 -3.65600586 7.01245117 C-4.45360825 7.81305466 -5.25121063 8.61365814 -6.07298279 9.43852234 C-6.94479691 10.29798965 -7.81661102 11.15745697 -8.71484375 12.04296875 C-9.60031387 12.9265657 -10.485784 13.81016266 -11.39808655 14.72053528 C-13.27363636 16.58935333 -15.1517013 18.45511627 -17.03491211 20.31616211 C-19.45410881 22.70703552 -21.86450536 25.10653993 -24.27181149 27.50937939 C-26.56216446 29.79458806 -28.85719471 32.07507842 -31.15234375 34.35546875 C-32.02213364 35.22100876 -32.89192352 36.08654877 -33.78807068 36.97831726 C-34.58882523 37.76946426 -35.38957977 38.56061127 -36.21459961 39.37573242 C-36.9229747 40.07727951 -37.63134979 40.7788266 -38.3611908 41.50163269 C-40 43 -40 43 -41 43 C-41.33 41.02 -41.66 39.04 -42 37 C-40.35 37.33 -38.7 37.66 -37 38 C-37.226875 37.4225 -37.45375 36.845 -37.6875 36.25 C-38 34 -38 34 -36.5625 31.75 C-36.046875 31.1725 -35.53125 30.595 -35 30 C-33.35 30.33 -31.7 30.66 -30 31 C-29.67 29.35 -29.34 27.7 -29 26 C-28.01 25.67 -27.02 25.34 -26 25 C-24.32932867 23.00334402 -22.66247014 21.00348966 -21 19 C-20.34 19 -19.68 19 -19 19 C-18.67 18.01 -18.34 17.02 -18 16 C-17.34 16 -16.68 16 -16 16 C-16 15.34 -16 14.68 -16 14 C-15.34 14 -14.68 14 -14 14 C-14 12.35 -14 10.7 -14 9 C-13.01 9 -12.02 9 -11 9 C-11 8.34 -11 7.68 -11 7 C-8.0173094 5.47551369 -5.181798 4.06059933 -2 3 C-2 2.34 -2 1.68 -2 1 C-1.34 0.67 -0.68 0.34 0 0 Z " fill="#2E797B" transform="translate(263,228)"/>
<path d="M0 0 C0.66 0.33 1.32 0.66 2 1 C1.34 2.65 0.68 4.3 0 6 C-0.66 6 -1.32 6 -2 6 C-2.0928125 7.1446875 -2.0928125 7.1446875 -2.1875 8.3125 C-3 11 -3 11 -5.4375 12.8125 C-8 14 -8 14 -10 14 C-10.07089844 14.62390625 -10.14179688 15.2478125 -10.21484375 15.890625 C-11 18 -11 18 -13.06640625 19.046875 C-13.89011719 19.27890625 -14.71382812 19.5109375 -15.5625 19.75 C-16.80193359 20.11351562 -16.80193359 20.11351562 -18.06640625 20.484375 C-18.70449219 20.65453125 -19.34257812 20.8246875 -20 21 C-15.76183463 15.93376232 -11.32591037 11.19961931 -6.625 6.5625 C-5.98433594 5.92634766 -5.34367188 5.29019531 -4.68359375 4.63476562 C-3.12469121 3.08749668 -1.56348584 1.54263508 0 0 Z " fill="#479CA2" transform="translate(185,121)"/>
<path d="M0 0 C-0.680625 0.4640625 -1.36125 0.928125 -2.0625 1.40625 C-11.70667475 8.28028945 -19.79618176 16.49065377 -28 25 C-28.33 24.01 -28.66 23.02 -29 22 C-27.625 20.5 -27.625 20.5 -26 19 C-25.34 19 -24.68 19 -24 19 C-23.938125 18.443125 -23.87625 17.88625 -23.8125 17.3125 C-22.63433878 13.95927191 -20.62162281 12.39850598 -18 10 C-17.32710937 9.38125 -16.65421875 8.7625 -15.9609375 8.125 C-10.27797379 3 -10.27797379 3 -8 3 C-8 2.34 -8 1.68 -8 1 C-4.85571151 -0.9090323 -3.47925125 -1.04523725 0 0 Z " fill="#DEF8F9" transform="translate(195,115)"/>
<path d="M0 0 C0.99 1.32 1.98 2.64 3 4 C-2.75 8 -2.75 8 -5 8 C-5.66 9.65 -6.32 11.3 -7 13 C-7.99 13 -8.98 13 -10 13 C-10 13.66 -10 14.32 -10 15 C-11.65 15.33 -13.3 15.66 -15 16 C-10.30233025 10.33870569 -5.25276628 5.14771096 0 0 Z " fill="#4D9DA3" transform="translate(164,142)"/>
<path d="M0 0 C9.74748843 10.99613364 7.34589616 28.27413096 7 42 C6.67 42 6.34 42 6 42 C5.94392578 40.34677734 5.94392578 40.34677734 5.88671875 38.66015625 C5.55667526 30.5610509 4.97002019 22.61497907 3.5625 14.625 C3.44028076 13.91867432 3.31806152 13.21234863 3.19213867 12.48461914 C2.54001607 8.9994285 1.64759156 6.12400478 0 3 C0 2.01 0 1.02 0 0 Z " fill="#D3F2F4" transform="translate(300,165)"/>
<path d="M0 0 C0.54527344 0.19335938 1.09054688 0.38671875 1.65234375 0.5859375 C2.40644531 0.84632813 3.16054687 1.10671875 3.9375 1.375 C5.03384766 1.75785156 5.03384766 1.75785156 6.15234375 2.1484375 C14.26208085 4.5735715 21.590311 5.26397597 30.0625 5.125 C31.11888672 5.11597656 32.17527344 5.10695313 33.26367188 5.09765625 C35.84269253 5.0743167 38.4212199 5.04157775 41 5 C39 7 39 7 36.94384766 7.24291992 C36.10901855 7.23881104 35.27418945 7.23470215 34.4140625 7.23046875 C33.48827393 7.22942139 32.56248535 7.22837402 31.60864258 7.22729492 C30.62404053 7.2141626 29.63943848 7.20103027 28.625 7.1875 C27.62944092 7.17887939 26.63388184 7.17025879 25.6081543 7.16137695 C6.04563095 6.92376254 6.04563095 6.92376254 3.32421875 4.51953125 C2.88722656 4.01808594 2.45023438 3.51664062 2 3 C1.34 2.67 0.68 2.34 0 2 C0 1.34 0 0.68 0 0 Z " fill="#DBF6F5" transform="translate(144,288)"/>
<path d="M0 0 C0.82638376 2.89234315 1 4.88742431 1 8 C0.41089844 7.78085937 -0.17820313 7.56171875 -0.78515625 7.3359375 C-3.01396519 6.7582856 -3.01396519 6.7582856 -4.74609375 8.0390625 C-5.30425781 8.56242187 -5.86242187 9.08578125 -6.4375 9.625 C-7.035625 10.17671875 -7.63375 10.7284375 -8.25 11.296875 C-8.8275 11.85890625 -9.405 12.4209375 -10 13 C-10.515625 13.50015625 -11.03125 14.0003125 -11.5625 14.515625 C-12.72274576 15.66268615 -13.86367326 16.82923912 -15 18 C-15.66 17.34 -16.32 16.68 -17 16 C-16.35933594 15.43152344 -15.71867188 14.86304688 -15.05859375 14.27734375 C-9.88469658 9.65861886 -4.83207353 4.97607572 0 0 Z " fill="#D8F3F3" transform="translate(229,264)"/>
<path d="M0 0 C1.32 0.33 2.64 0.66 4 1 C-0.95 5.95 -5.9 10.9 -11 16 C-11.33 15.01 -11.66 14.02 -12 13 C-10.1875 10.3125 -10.1875 10.3125 -8 8 C-7.34 8 -6.68 8 -6 8 C-6 7.34 -6 6.68 -6 6 C-5.01 6 -4.02 6 -3 6 C-2.690625 5.195625 -2.38125 4.39125 -2.0625 3.5625 C-1 1 -1 1 0 0 Z " fill="#DEF7F9" transform="translate(162,140)"/>
<path d="M0 0 C0 0.33 0 0.66 0 1 C-0.78503906 1.04898438 -1.57007813 1.09796875 -2.37890625 1.1484375 C-8.22296076 1.5643334 -13.36232094 2.37374643 -19 4 C-21.69322838 4.15786241 -24.29870336 4.09478234 -27 4 C-26.67 3.34 -26.34 2.68 -26 2 C-17.50461146 -0.7306606 -8.81938282 -0.18226049 0 0 Z " fill="#52A4A6" transform="translate(235,106)"/>
<path d="M0 0 C0 0.99 0 1.98 0 3 C-1.33333333 4.33333333 -2.66666667 5.66666667 -4 7 C-4 7.99 -4 8.98 -4 10 C-4.33 10.99 -4.66 11.98 -5 13 C-7.64 13.33 -10.28 13.66 -13 14 C-8.88380164 9.08064098 -4.59589638 4.47352044 0 0 Z " fill="#DAF1F2" transform="translate(267,226)"/>
<path d="M0 0 C0.66 0 1.32 0 2 0 C2 0.66 2 1.32 2 2 C2.99 1.67 3.98 1.34 5 1 C5.33 2.98 5.66 4.96 6 7 C7.32 7 8.64 7 10 7 C10.33 9.31 10.66 11.62 11 14 C10.01 14 9.02 14 8 14 C6.45292515 11.87314185 5.12377647 9.82700096 3.8125 7.5625 C3.44447266 6.95083984 3.07644531 6.33917969 2.69726562 5.70898438 C0 1.18018031 0 1.18018031 0 0 Z " fill="#2C7A7C" transform="translate(106,249)"/>
<path d="M0 0 C-1.93694678 0.81381795 -3.87457711 1.62600916 -5.8125 2.4375 C-6.89144531 2.88996094 -7.97039062 3.34242188 -9.08203125 3.80859375 C-13.04677891 5.42739969 -15.92901578 6.11780499 -20.1875 6.0625 C-21.53908203 6.04896484 -21.53908203 6.04896484 -22.91796875 6.03515625 C-23.60503906 6.02355469 -24.29210937 6.01195312 -25 6 C-25 5.67 -25 5.34 -25 5 C-24.24074219 4.87882813 -23.48148437 4.75765625 -22.69921875 4.6328125 C-21.70535156 4.46523437 -20.71148437 4.29765625 -19.6875 4.125 C-18.70136719 3.96257812 -17.71523437 3.80015625 -16.69921875 3.6328125 C-13.79940173 3.11914546 -13.79940173 3.11914546 -11 1 C-6.8615887 -0.42963299 -4.19141717 -1.29887873 0 0 Z " fill="#E4FBFC" transform="translate(119,187)"/>
<path d="M0 0 C0.99386719 0.00902344 1.98773438 0.01804687 3.01171875 0.02734375 C4.15060547 0.04474609 4.15060547 0.04474609 5.3125 0.0625 C-0.43879886 3.89669924 -7.43141832 3.1951181 -14.125 3.125 C-14.95193359 3.12048828 -15.77886719 3.11597656 -16.63085938 3.11132812 C-18.64977146 3.09965811 -20.66864574 3.08172718 -22.6875 3.0625 C-22.6875 2.7325 -22.6875 2.4025 -22.6875 2.0625 C-21.71167969 2.00191406 -20.73585937 1.94132812 -19.73046875 1.87890625 C-18.45816406 1.79511719 -17.18585938 1.71132813 -15.875 1.625 C-14.61042969 1.54378906 -13.34585938 1.46257812 -12.04296875 1.37890625 C-7.8287367 0.98152232 -4.29316006 -0.05050777 0 0 Z " fill="#3C8480" transform="translate(184.6875,290.9375)"/>
<path d="M0 0 C-0.6875 1.9375 -0.6875 1.9375 -2 4 C-4.87939419 4.93580311 -6.25509788 5.37245106 -9 4 C-9.33 5.32 -9.66 6.64 -10 8 C-10 5.69 -10 3.38 -10 1 C-6.59437148 0.22157062 -3.49234244 -0.09978121 0 0 Z " fill="#237270" transform="translate(105,193)"/>
<path d="M0 0 C7.54964117 0.29037081 13.56288616 3.11713293 20 7 C20.33 7.66 20.66 8.32 21 9 C18.03 8.01 15.06 7.02 12 6 C12 5.34 12 4.68 12 4 C11.13375 3.87625 10.2675 3.7525 9.375 3.625 C6.10486147 3.01941879 3.12743101 2.11693965 0 1 C0 0.67 0 0.34 0 0 Z " fill="#4D9C9F" transform="translate(244,109)"/>
<path d="M0 0 C0.66 0 1.32 0 2 0 C0.49055027 3.84223567 -1.76843042 5.51995823 -5 8 C-6.68528688 9.64783606 -8.35697047 11.31002677 -10 13 C-10 12.01 -10 11.02 -10 10 C-9.34 10 -8.68 10 -8 10 C-7.34 8.68 -6.68 7.36 -6 6 C-5.34 6 -4.68 6 -4 6 C-3.67 4.68 -3.34 3.36 -3 2 C-2.01 2 -1.02 2 0 2 C0 1.34 0 0.68 0 0 Z " fill="#D9F4F5" transform="translate(134,169)"/>
<path d="M0 0 C0 0.66 0 1.32 0 2 C-2.08203125 3.54296875 -2.08203125 3.54296875 -4.8125 5.1875 C-6.15248047 6.01314453 -6.15248047 6.01314453 -7.51953125 6.85546875 C-10 8 -10 8 -13 7 C-12.34 7 -11.68 7 -11 7 C-10.67 6.01 -10.34 5.02 -10 4 C-8.4765625 2.83203125 -8.4765625 2.83203125 -6.625 1.8125 C-6.01914063 1.46832031 -5.41328125 1.12414062 -4.7890625 0.76953125 C-3 0 -3 0 0 0 Z " fill="#307675" transform="translate(211,280)"/>
<path d="M0 0 C0.6875 1.75 0.6875 1.75 1 4 C-0.125 6.25 -0.125 6.25 -2 8 C-4.6875 8.25 -4.6875 8.25 -7 8 C-5.08864614 4.46399535 -3.37357234 2.21027154 0 0 Z " fill="#519DA5" transform="translate(141,165)"/>
<path d="M0 0 C-1.875 3.875 -1.875 3.875 -3 5 C-4.68608966 5.07205511 -6.37500659 5.08386068 -8.0625 5.0625 C-8.98160156 5.05347656 -9.90070313 5.04445313 -10.84765625 5.03515625 C-11.55792969 5.02355469 -12.26820313 5.01195312 -13 5 C-10.54278328 3.36185552 -8.65432189 2.38047801 -5.9375 1.375 C-5.24527344 1.11460937 -4.55304688 0.85421875 -3.83984375 0.5859375 C-2 0 -2 0 0 0 Z " fill="#D4F0F0" transform="translate(200,288)"/>
<path d="M0 0 C1.60875 0.2784375 1.60875 0.2784375 3.25 0.5625 C6.40391546 0.9304568 8.09818492 1.04465343 11 0 C11.33 0.99 11.66 1.98 12 3 C10.68 3.99 9.36 4.98 8 6 C6.66402348 5.19185349 5.331275 4.37836819 4 3.5625 C3.2575 3.11003906 2.515 2.65757813 1.75 2.19140625 C1.1725 1.79824219 0.595 1.40507813 0 1 C0 0.67 0 0.34 0 0 Z " fill="#E6F7F7" transform="translate(257,112)"/>
<path d="M0 0 C-2.08219049 0.81542431 -4.16579761 1.62723189 -6.25 2.4375 C-7.41015625 2.88996094 -8.5703125 3.34242187 -9.765625 3.80859375 C-12.18966308 4.70150633 -14.48286475 5.45794365 -17 6 C-17 5.34 -17 4.68 -17 4 C-16.38125 3.71125 -15.7625 3.4225 -15.125 3.125 C-12.86674235 2.06279958 -12.86674235 2.06279958 -11 0 C-6.96249082 -0.82245557 -3.94157386 -1.15469014 0 0 Z " fill="#E1FAFC" transform="translate(212,108)"/>
<path d="M0 0 C1.1055189 0.93590504 2.20935453 1.87379858 3.3125 2.8125 C3.92738281 3.33457031 4.54226562 3.85664063 5.17578125 4.39453125 C6.85424679 5.87172469 8.43882034 7.40039131 10 9 C9.01 9.495 9.01 9.495 8 10 C8 9.34 8 8.68 8 8 C5.36 7.67 2.72 7.34 0 7 C0.66 5.68 1.32 4.36 2 3 C1.34 3 0.68 3 0 3 C0 2.01 0 1.02 0 0 Z " fill="#DBF0F1" transform="translate(122,272)"/>
<path d="M0 0 C1.32 0.33 2.64 0.66 4 1 C2.88121617 2.17262904 1.75476949 3.33795138 0.625 4.5 C-0.00148437 5.1496875 -0.62796875 5.799375 -1.2734375 6.46875 C-3 8 -3 8 -5 8 C-5.33 6.35 -5.66 4.7 -6 3 C-5.01 3.33 -4.02 3.66 -3 4 C-2.67 3.34 -2.34 2.68 -2 2 C-1.34 2 -0.68 2 0 2 C0 1.34 0 0.68 0 0 Z " fill="#327B7C" transform="translate(218,271)"/>
<path d="M0 0 C0.33 0 0.66 0 1 0 C1.33 1.98 1.66 3.96 2 6 C-0.93720508 7.52299523 -3.9168649 8.80100302 -7 10 C-6.21625 9.0925 -5.4325 8.185 -4.625 7.25 C-2.69947504 4.94809764 -1.17794259 2.78422793 0 0 Z " fill="#ECFAF9" transform="translate(269,224)"/>
<path d="M0 0 C0.66 0.33 1.32 0.66 2 1 C1.34 1.66 0.68 2.32 0 3 C-0.2475 3.845625 -0.495 4.69125 -0.75 5.5625 C-1.1625 6.366875 -1.575 7.17125 -2 8 C-5.125 8.8125 -5.125 8.8125 -8 9 C-7.04270084 7.87411986 -6.08412105 6.7493285 -5.125 5.625 C-4.59132813 4.99851563 -4.05765625 4.37203125 -3.5078125 3.7265625 C-2.38567993 2.44163349 -1.20628025 1.20628025 0 0 Z " fill="#D4F2F3" transform="translate(278,215)"/>
<path d="M0 0 C0.33 0.99 0.66 1.98 1 3 C-0.41488448 5.76239351 -1.80363095 7.80363095 -4 10 C-6.625 10.125 -6.625 10.125 -9 10 C-8.2575 9.278125 -7.515 8.55625 -6.75 7.8125 C-4.30709485 5.31407427 -2.1318953 2.76356798 0 0 Z " fill="#57A6AA" transform="translate(129,176)"/>
<path d="M0 0 C0.33 0.66 0.66 1.32 1 2 C-1.12121657 4.33333823 -3.01594365 5.9148886 -6 7 C-7.32 6.67 -8.64 6.34 -10 6 C-6.7 4.02 -3.4 2.04 0 0 Z " fill="#D2EDEE" transform="translate(211,281)"/>
<path d="M0 0 C6.75 0.875 6.75 0.875 9 2 C8.67 2.99 8.34 3.98 8 5 C7.34 5 6.68 5 6 5 C5.67 5.66 5.34 6.32 5 7 C3.35 4.69 1.7 2.38 0 0 Z " fill="#307A7A" transform="translate(116,264)"/>
<path d="M0 0 C3.43600559 5.15400839 4.24403837 8.77702167 4 15 C0.73154287 10.09731431 -0.27944109 5.86826297 0 0 Z " fill="#2F7576" transform="translate(98,224)"/>
<path d="M0 0 C0.82638376 2.89234315 1 4.88742431 1 8 C-0.65 7.67 -2.3 7.34 -4 7 C-3.43628586 3.73045798 -2.50037734 2.17424117 0 0 Z " fill="#E7F8F8" transform="translate(229,264)"/>
<path d="M0 0 C3.7952131 1.49097658 5.61042731 3.75700849 8 7 C5.6875 7.3125 5.6875 7.3125 3 7 C1.18116991 4.6167054 0 3.04181663 0 0 Z " fill="#469FA1" transform="translate(270,122)"/>
<path d="M0 0 C0.99 0.66 1.98 1.32 3 2 C0.03 3.65 -2.94 5.3 -6 7 C-5.67 5.35 -5.34 3.7 -5 2 C-3.35 2 -1.7 2 0 2 C0 1.34 0 0.68 0 0 Z " fill="#49A2A0" transform="translate(283,209)"/>
<path d="M0 0 C2.31 0.33 4.62 0.66 7 1 C7 3.31 7 5.62 7 8 C4.35247996 5.42215154 2.05567935 3.08351902 0 0 Z " fill="#E3F7F9" transform="translate(278,128)"/>
<path d="M0 0 C0.66 0 1.32 0 2 0 C2 0.99 2 1.98 2 3 C4.31 3.33 6.62 3.66 9 4 C9.33 4.99 9.66 5.98 10 7 C8.53932801 6.54917531 7.08151968 6.08906463 5.625 5.625 C4.81289062 5.36976563 4.00078125 5.11453125 3.1640625 4.8515625 C1 4 1 4 -1 2 C-0.67 1.34 -0.34 0.68 0 0 Z " fill="#307878" transform="translate(142,284)"/>
<path d="M0 0 C0.66 0 1.32 0 2 0 C2 0.66 2 1.32 2 2 C2.99 1.67 3.98 1.34 5 1 C5.33 3.64 5.66 6.28 6 9 C3.59927045 6.11912454 1.52708963 3.43595166 0 0 Z " fill="#397D7F" transform="translate(106,249)"/>
<path d="M0 0 C-0.66 0 -1.32 0 -2 0 C-2 0.66 -2 1.32 -2 2 C-4.3125 2.625 -4.3125 2.625 -7 3 C-7.99 2.34 -8.98 1.68 -10 1 C-3.71428571 -1.42857143 -3.71428571 -1.42857143 0 0 Z " fill="#D8F5F6" transform="translate(296,209)"/>
<path d="M0 0 C-0.99 2.31 -1.98 4.62 -3 7 C-5 4 -5 4 -5 2 C-5.99 1.67 -6.98 1.34 -8 1 C-2.25 -1.125 -2.25 -1.125 0 0 Z " fill="#53A2A7" transform="translate(112,191)"/>
<path d="M0 0 C0.33 0 0.66 0 1 0 C1 1.65 1 3.3 1 5 C-1.31 5.66 -3.62 6.32 -6 7 C-5.02433888 5.83040013 -4.044375 4.66438823 -3.0625 3.5 C-2.51722656 2.8503125 -1.97195312 2.200625 -1.41015625 1.53125 C-0.71212891 0.77328125 -0.71212891 0.77328125 0 0 Z " fill="#4D9CA2" transform="translate(148,158)"/>
<path d="M0 0 C2.475 0.495 2.475 0.495 5 1 C4.67 1.66 4.34 2.32 4 3 C4.99 4.485 4.99 4.485 6 6 C5.67 7.32 5.34 8.64 5 10 C3.35 6.7 1.7 3.4 0 0 Z " fill="#DBF6F7" transform="translate(290,144)"/>
<path d="M0 0 C0 0.99 0 1.98 0 3 C-4.455 4.485 -4.455 4.485 -9 6 C-3.15384615 0 -3.15384615 0 0 0 Z " fill="#56A1A6" transform="translate(197,114)"/>
<path d="M0 0 C1.32 0.33 2.64 0.66 4 1 C0.535 3.97 0.535 3.97 -3 7 C-3 3.48283697 -2.17554415 2.62878252 0 0 Z " fill="#D5F4F5" transform="translate(146,156)"/>
<path d="M0 0 C3.24208567 0.35049575 4.61527704 0.56221181 6.8125 3.0625 C7.204375 3.701875 7.59625 4.34125 8 5 C7.67 5.66 7.34 6.32 7 7 C5.83040013 6.02433888 4.66438823 5.044375 3.5 4.0625 C2.8503125 3.51722656 2.200625 2.97195312 1.53125 2.41015625 C1.0259375 1.94480469 0.520625 1.47945313 0 1 C0 0.67 0 0.34 0 0 Z " fill="#D3EEF1" transform="translate(267,118)"/>
<path d="M0 0 C2.475 0.99 2.475 0.99 5 2 C5 3.65 5 5.3 5 7 C4.01 7 3.02 7 2 7 C0.5393715 4.35261084 0 3.10551666 0 0 Z " fill="#EEFAFB" transform="translate(298,158)"/>
<path d="M0 0 C3.48331435 3.01887244 4.79157144 5.56909529 6 10 C2.64888166 7.76592111 1.18446044 6.73784176 0.1875 2.75 C0.125625 1.8425 0.06375 0.935 0 0 Z " fill="#529FA1" transform="translate(289,144)"/>
<path d="M0 0 C2.9375 0.75 2.9375 0.75 6 2 C6.875 4.125 6.875 4.125 7 6 C5 6 5 6 3.5 4.5625 C3.005 4.046875 2.51 3.53125 2 3 C1.34 2.67 0.68 2.34 0 2 C0 1.34 0 0.68 0 0 Z " fill="#D0EAEB" transform="translate(144,288)"/>
<path d="M0 0 C0.66 0.33 1.32 0.66 2 1 C1.34 2.65 0.68 4.3 0 6 C-0.66 6 -1.32 6 -2 6 C-2.33 6.66 -2.66 7.32 -3 8 C-3.75 6.25 -3.75 6.25 -4 4 C-2.0625 1.75 -2.0625 1.75 0 0 Z " fill="#4EA3A7" transform="translate(185,121)"/>
<path d="M0 0 C2.97 0.495 2.97 0.495 6 1 C4.35 2.65 2.7 4.3 1 6 C0.67 4.02 0.34 2.04 0 0 Z " fill="#337A7D" transform="translate(221,265)"/>
</svg>
